<svg xmlns="http://www.w3.org/2000/svg" viewBox="-14 0 92 48">
  <g transform="translate(0 1)">
    <g class="tw" style="transform-box:view-box;transform-origin:16px 24px">
      <path d="M15 24C4 16-2 8-6 4c-1 8-1 15 0 22 4 6 10 13 21 16-2-5-3-11-3-18s1-13 3-18z" fill="#3C6CA8" stroke="#1d2e30" stroke-width="1.9" stroke-linejoin="round"/>
      <path d="M14.2 24c-4.6-4.7-9.5-9.2-15.4-12.8" fill="none" stroke="#1d2e30" stroke-width="0.9" stroke-linecap="round" opacity="0.75"/>
      <path d="M14.6 24c-5.1-1.9-10.4-3.1-15.7-3.5" fill="none" stroke="#1d2e30" stroke-width="0.9" stroke-linecap="round" opacity="0.75"/>
      <path d="M14.6 24c-5 .6-10.2 2-15.5 4.4" fill="none" stroke="#1d2e30" stroke-width="0.9" stroke-linecap="round" opacity="0.75"/>
      <path d="M14.2 24c-4.4 3.8-8.8 8.3-13.4 13" fill="none" stroke="#1d2e30" stroke-width="0.9" stroke-linecap="round" opacity="0.75"/>
    </g>

    <path d="M16.8 24c0-11 13.7-17.8 27.9-17.8 13.4 0 23.3 6.3 23.3 17.8 0 10.6-9.3 17.8-23.5 17.8C29.3 42 16.8 35 16.8 24z" fill="#8FB3B8" stroke="#1d2e30" stroke-width="2.1" stroke-linejoin="round"/>
    <path d="M18.5 28.6c2.8 6.9 11.4 11.7 25.4 11.7 9.9 0 18.8-3.7 22.2-9.5-4.6 1.2-8.9 1.9-13.4 2.1-5 .2-9.9-.2-14.6-.5-7.2-.4-13.4-1.2-19.6-3.8z" fill="#D6E6E6"/>

    <path d="M31.2 7.6c-2.5-4.1-7.1-6.3-13.9-6.8 3.8 3.1 6 6.5 6.8 11.1z" fill="#2F5358" stroke="#1d2e30" stroke-width="1.8" stroke-linejoin="round"/>
    <path d="M32.6 35.8c-2.3 4.4-6.4 7.2-12.1 8.3-2.1-3-4-5.8-5.8-9.3 4.7-1.2 8.6-2.3 12.6-4.8z" fill="#2F5358" stroke="#1d2e30" stroke-width="1.8" stroke-linejoin="round"/>
    <path d="M23.4 34.2c-2 1.4-3.8 3.4-5.8 5.9" fill="none" stroke="#1d2e30" stroke-width="0.8" stroke-linecap="round" opacity="0.75"/>
    <path d="M25.9 35.6c-2.2 1.5-4.3 4-6 7" fill="none" stroke="#1d2e30" stroke-width="0.8" stroke-linecap="round" opacity="0.75"/>
    <path d="M28.2 37.1c-1.9 1.5-3.7 3.8-5 6.2" fill="none" stroke="#1d2e30" stroke-width="0.8" stroke-linecap="round" opacity="0.75"/>

    <path d="M51.2 7.6c4 1 8 3.5 11.4 7.8-4.2 1-7.4 1.6-11.6 1.7-0.2-3.4-0.2-6.4 0.2-9.5z" fill="#2F5358" stroke="#1d2e30" stroke-width="1.8" stroke-linejoin="round"/>
    <path d="M53 8.2c0.2 2.8 0.3 5.7 0.3 8.4" fill="none" stroke="#1d2e30" stroke-width="0.8" stroke-linecap="round" opacity="0.75"/>
    <path d="M55.2 8.9c0.1 2.5 0.2 5 0.2 7.3" fill="none" stroke="#1d2e30" stroke-width="0.8" stroke-linecap="round" opacity="0.75"/>
    <path d="M57.3 9.9c0 2.1 0 4.1-0.1 6" fill="none" stroke="#1d2e30" stroke-width="0.8" stroke-linecap="round" opacity="0.75"/>
    <path d="M59.1 11.3c0 1.4-0.1 2.8-0.2 4.3" fill="none" stroke="#1d2e30" stroke-width="0.8" stroke-linecap="round" opacity="0.75"/>

    <path d="M48.2 39.2c-3.3 3.3-7.8 4.8-13 4.7 2.1-4.4 4.6-7 7.6-10.2z" fill="#2F5358" stroke="#1d2e30" stroke-width="1.8" stroke-linejoin="round"/>
    <path d="M40.6 38.7c1.9 1.4 3.4 3 4.8 4.9" fill="none" stroke="#1d2e30" stroke-width="0.8" stroke-linecap="round" opacity="0.75"/>
    <path d="M42.8 37.7c1.8 1.5 3.6 3.8 5.1 6.2" fill="none" stroke="#1d2e30" stroke-width="0.8" stroke-linecap="round" opacity="0.75"/>
    <path d="M44.8 36.1c1.7 1.6 3.6 3.8 5.2 6.2" fill="none" stroke="#1d2e30" stroke-width="0.8" stroke-linecap="round" opacity="0.75"/>

    <path d="M32.1 11.5c0.8-0.5 1.6-0.7 2.6-0.3" fill="none" stroke="#1d2e30" stroke-width="0.8" stroke-linecap="round"/>
    <path d="M33.2 10.3c0.7-0.2 1.4-0.5 2.1-1.1" fill="none" stroke="#1d2e30" stroke-width="0.8" stroke-linecap="round"/>

    <path d="M51.7 13.4c4.3-0.6 7.5 0.4 10 2.9" fill="none" stroke="#1d2e30" stroke-width="2" stroke-linecap="round"/>
    <circle cx="53.9" cy="19.5" r="4.05" fill="#fff" stroke="#1d2e30" stroke-width="1.6"/>
    <circle cx="55.1" cy="20.2" r="1.8" fill="#0a1a26"/>
    <circle cx="54.3" cy="18.9" r="0.55" fill="#fff"/>

    <path d="M48.8 13.7c2-1.8 4.8-2.5 8.4-2 2.5 0.4 4.1 1.2 5.4 2.4" fill="none" stroke="#1d2e30" stroke-width="2.1" stroke-linecap="round"/>
    <path d="M48.5 14.5c-3.7 3.1-5.8 7.8-5.8 13.8 0 5.9 2.3 10 6.9 12.5" fill="none" stroke="#1d2e30" stroke-width="1.7" stroke-linecap="round"/>

    <path d="M56.6 24.7c3.2 0.1 6.5 0 9.8-0.7" fill="none" stroke="#1d2e30" stroke-width="1.8" stroke-linecap="round"/>
    <path d="M50.8 26.8c2.1 1.1 4.5 1.6 7.2 1.6 2.4 0 4.5-0.2 6.8-0.8" fill="none" stroke="#1d2e30" stroke-width="1.4" stroke-linecap="round" opacity="0.85"/>

    <path d="M53.4 28.1c2.5 1.4 5.4 2.3 8.7 2.6-2.5 2.6-5.5 4-9.4 4.2-4.2 0.2-8.2-1.1-11.1-3.9 4 0.1 7.7-0.8 11.8-2.9z" fill="#D6E6E6" stroke="#1d2e30" stroke-width="1.8" stroke-linejoin="round"/>
    <path d="M52.7 28.2l2.3 5 2.4-5 2.3 4.3 2.4-4.6 2.5 4c-3 2-6.2 3-10.1 3.1-4.4 0.1-7.4-1-10.4-3.8 3.2 0.1 5.8-0.7 8.6-3z" fill="#fff" stroke="#1d2e30" stroke-width="1.05" stroke-linejoin="round"/>

    <path d="M44.2 33.7c1.5 0.1 3 0.3 4.4 0.8" fill="none" stroke="#1d2e30" stroke-width="0.9" stroke-linecap="round" opacity="0.7"/>

    <ellipse cx="35.5" cy="27.9" rx="1.2" ry="1.2" fill="#2F5358" opacity="0.82"/>
    <ellipse cx="38.8" cy="23" rx="0.85" ry="0.85" fill="#2F5358" opacity="0.82"/>
    <ellipse cx="40.4" cy="18.6" rx="1.05" ry="1.05" fill="#2F5358" opacity="0.82"/>
    <ellipse cx="44.2" cy="16.3" rx="0.78" ry="0.78" fill="#2F5358" opacity="0.82"/>
    <ellipse cx="46" cy="22" rx="0.95" ry="0.95" fill="#2F5358" opacity="0.82"/>
    <ellipse cx="49.2" cy="27.2" rx="0.72" ry="0.72" fill="#2F5358" opacity="0.82"/>
    <ellipse cx="33.2" cy="20.2" rx="0.72" ry="0.72" fill="#2F5358" opacity="0.82"/>
    <ellipse cx="29.5" cy="24.2" rx="0.58" ry="0.58" fill="#2F5358" opacity="0.82"/>

    <path d="M26.4 11.9c6.2-2.6 12.5-3.7 19-3.3 3.6 0.2 7.5 0.9 11.7 2" fill="none" stroke="#D6E6E6" stroke-width="1.5" stroke-linecap="round" opacity="0.9"/>
  </g>
</svg>
