<svg xmlns="http://www.w3.org/2000/svg" viewBox="-14 0 92 48">
  <g class="tw" style="transform-box:view-box;transform-origin:16px 24px">
    <path d="M15 24C7 17 1 10-7 6c2 7 3 12 3 18s-1 11-3 18c8-4 14-11 22-18z" fill="#3C6CA8" stroke="#1d2e30" stroke-width="2.2" stroke-linejoin="round"/>
  </g>

  <path d="M14 24C23.5 13.5 35.5 8 50 8c9.1 0 17.8 2.9 25.5 10 2.1 1.9 2.1 4.1 0 6C67.8 31.1 59.1 34 50 34 35.5 34 23.5 31 14 24z" fill="#8FB3B8" stroke="#1d2e30" stroke-width="2.2" stroke-linejoin="round"/>

  <path d="M38.5 9.1c-2-5-5.9-8-11.4-9.1 1.8 4.9 2 8.8.6 12.9z" fill="#2F5358" stroke="#1d2e30" stroke-width="2" stroke-linejoin="round"/>

  <path d="M35.5 26.2c-3.9 1.6-6.9 4.6-8.9 9 4.9-1 8.8-3 11.9-6.6z" fill="#2F5358" stroke="#1d2e30" stroke-width="2" stroke-linejoin="round"/>
  <path d="M48.2 28.2c-2.6 1.4-4.6 3.8-5.9 7.1 3.3-.7 5.9-2.2 8-4.9z" fill="#2F5358" stroke="#1d2e30" stroke-width="1.8" stroke-linejoin="round"/>

  <path d="M54 14.1c3.4-2 7.2-2.2 11.1-.7" fill="none" stroke="#1d2e30" stroke-width="2.3" stroke-linecap="round"/>
  <circle cx="60.5" cy="19.2" r="4.2" fill="#fff" stroke="#1d2e30" stroke-width="1.7"/>
  <circle cx="61.9" cy="19.7" r="1.9" fill="#0a1a26"/>

  <path d="M52.8 26.5l2.4 5 2.5-4.5 2.7 4.2 2.8-4.6 2.9 4.1 3-4.3c-4.7.8-10 .8-16.3.1z" fill="#fff" stroke="#1d2e30" stroke-width="1.2" stroke-linejoin="round"/>
</svg>
